<svg width="215" height="362" viewBox="0 0 215 362" fill="none" xmlns="http://www.w3.org/2000/svg">
<g opacity="0.5" clip-path="url(#clip0_270_996)">
<path d="M52.9285 50.4529C54.6747 57.8762 54.3057 65.3991 52.3999 72.6533C49.3036 84.4364 42.5422 95.7375 34.8927 106.828C19.5912 129.008 0.793236 150.797 -2.53684 169.132C-5.66186 186.341 -2.36177 199.539 4.32072 208.95C7.19469 212.998 10.7371 216.366 14.7514 219.025C41.543 195.596 60.9156 157.14 59.0742 122.526C68.2648 156.659 59.653 195.216 33.284 225.615L28.435 224.926C29.8756 225.268 31.3317 225.542 32.7983 225.746C55.8927 228.997 83.9986 215.71 96.3593 179.576C102.038 162.974 104.122 136.147 96.7005 110.147C90.2797 87.6544 77.0004 65.7756 52.9276 50.4535L52.9285 50.4529ZM132.716 206.206C129.208 211.413 124.549 215.552 119.208 218.672C109.873 224.124 98.6174 226.959 86.9661 229.098C63.6641 233.377 38.5315 235.294 25.3276 244.442C12.8206 253.108 6.80663 263.184 5.14269 273C4.42867 277.199 4.50759 281.495 5.37537 285.665C36.3814 287.558 71.913 275.725 92.1097 253.248C76.7081 280.003 47.6654 298.521 12.6762 301.162C24.9599 316.947 50.0481 325.747 79.5926 311.258C93.2807 304.545 111.155 289.259 122.615 268.637C132.342 251.132 137.621 229.95 132.716 206.208L132.716 206.206ZM-76.7406 129.186C-92.8639 147.296 -98.8944 168.29 -99.2244 188.314C-99.6125 211.901 -91.7713 234.08 -83.2743 246.735C-64.9365 274.05 -38.8176 278.957 -20.2857 271.43C-49.2621 251.652 -65.1514 221.099 -65.1069 190.232C-58.8554 219.796 -34.0059 247.806 -6.20628 261.666C-3.36634 258.492 -1.14706 254.813 0.336441 250.82C3.80375 241.488 3.62083 229.739 -2.87705 215.982C-9.7365 201.461 -30.5389 187.246 -48.5787 171.891C-57.5988 164.215 -65.93 156.142 -71.287 146.753C-74.3536 141.379 -76.3056 135.453 -76.74 129.187L-76.7406 129.186Z" fill="#4A9660"/>
</g>
<defs>
<clipPath id="clip0_270_996">
<rect width="265" height="265" fill="white" transform="translate(-14.5) rotate(30)"/>
</clipPath>
</defs>
</svg>
