<svg width="212" height="362" viewBox="0 0 212 362" fill="none" xmlns="http://www.w3.org/2000/svg">
<g opacity="0.5" clip-path="url(#clip0_270_997)">
<path d="M162.068 50.4529C160.322 57.8762 160.691 65.3991 162.597 72.6533C165.693 84.4364 172.454 95.7375 180.104 106.828C195.405 129.008 214.203 150.797 217.534 169.132C220.659 186.341 217.358 199.539 210.676 208.95C207.802 212.998 204.26 216.366 200.245 219.025C173.454 195.596 154.081 157.14 155.923 122.526C146.732 156.659 155.344 195.216 181.713 225.615L186.562 224.926C185.121 225.268 183.665 225.542 182.198 225.746C159.104 228.997 130.998 215.71 118.637 179.576C112.958 162.974 110.875 136.147 118.296 110.147C124.717 87.6544 137.996 65.7756 162.069 50.4535L162.068 50.4529ZM82.2803 206.206C85.7882 211.413 90.448 215.552 95.7885 218.672C105.123 224.124 116.379 226.959 128.031 229.098C151.333 233.377 176.465 235.294 189.669 244.442C202.176 253.108 208.19 263.184 209.854 273C210.568 277.199 210.489 281.495 209.621 285.665C178.615 287.558 143.084 275.725 122.887 253.248C138.289 280.003 167.331 298.521 202.32 301.162C190.037 316.947 164.949 325.747 135.404 311.258C121.716 304.545 103.842 289.259 92.3822 268.637C82.6543 251.132 77.3755 229.95 82.2807 206.208L82.2803 206.206ZM291.737 129.186C307.861 147.296 313.891 168.29 314.221 188.314C314.609 211.901 306.768 234.08 298.271 246.735C279.933 274.05 253.814 278.957 235.282 271.43C264.259 251.652 280.148 221.099 280.104 190.232C273.852 219.796 249.003 247.806 221.203 261.666C218.363 258.492 216.144 254.813 214.66 250.82C211.193 241.488 211.376 229.739 217.874 215.982C224.733 201.461 245.536 187.246 263.575 171.891C272.596 164.215 280.927 156.142 286.284 146.753C289.35 141.379 291.302 135.453 291.737 129.187L291.737 129.186Z" fill="#4A9660"/>
</g>
<defs>
<clipPath id="clip0_270_997">
<rect width="265" height="265" fill="white" transform="matrix(-0.866025 0.5 0.5 0.866025 229.497 0)"/>
</clipPath>
</defs>
</svg>
