<svg width="210" height="343" viewBox="0 0 210 343" fill="none" xmlns="http://www.w3.org/2000/svg">
<g opacity="0.5">
<path d="M21.448 72.6945C20.3499 76.7845 20.5141 81.111 21.919 85.1061C23.3239 89.1012 25.9038 92.5782 29.3202 95.0807C25.9145 101.517 19.8497 105.327 10.6491 110.833L10.6283 110.856C8.80834 111.915 6.91346 113.055 4.94363 114.276C-11.3936 121.696 -24.3349 135.375 -29.1505 153.347C-29.4911 154.618 -29.7842 155.892 -30.0298 157.169C-30.3857 158.137 -30.6965 159.117 -30.9622 160.108L-49.0795 227.723C-50.6695 233.657 -50.6693 239.906 -49.0791 245.84C-47.4889 251.775 -44.3646 257.186 -40.0203 261.53C-35.676 265.874 -30.2647 268.998 -24.3303 270.588C-18.396 272.178 -12.1476 272.178 -6.21322 270.588C-1.86907 274.933 3.54218 278.057 9.47662 279.648C15.4112 281.238 21.6597 281.237 27.5942 279.647C31.9384 283.991 37.3497 287.115 43.284 288.706C49.2184 290.296 55.4668 290.296 61.4012 288.706C67.3355 287.116 72.7469 283.992 77.0912 279.647C81.4355 275.303 84.5598 269.892 86.1501 263.958L104.267 196.343C104.533 195.351 104.754 194.347 104.929 193.332C105.355 192.103 105.739 190.853 106.079 189.581C109.006 178.632 108.659 167.065 105.08 156.311C101.861 146.796 97.3315 139.089 93.5219 132.589L93.4229 132.418C87.9852 123.178 84.5081 116.898 84.6364 109.874C89.5017 109.332 94.0247 107.107 97.4238 103.584C100.823 100.061 102.884 95.4616 103.252 90.5801C103.62 85.6986 102.271 80.842 99.4375 76.8497C96.6045 72.8574 92.4657 69.9803 87.7365 68.7156L47.1676 57.8452C41.7879 56.4037 36.0558 57.1584 31.2324 59.9431C26.4091 62.7279 22.8895 67.3147 21.448 72.6945ZM-35.5566 231.347L-33.7448 224.585L74.4389 253.573L72.6271 260.334C71.6026 264.154 69.52 267.608 66.6191 270.296C63.7183 272.985 60.1171 274.8 56.2302 275.532C52.3433 276.264 48.3287 275.883 44.6486 274.434C40.9685 272.984 37.7725 270.525 35.4286 267.339C34.4865 266.054 33.134 265.129 31.5948 264.716C30.0556 264.304 28.4217 264.429 26.9632 265.071C22.5959 266.986 17.7067 267.358 13.1001 266.125C8.29944 264.839 4.35016 261.998 1.62119 258.281C0.679056 256.995 -0.67337 256.07 -2.21259 255.658C-3.75181 255.245 -5.38567 255.37 -6.84418 256.012C-10.467 257.599 -14.4644 258.131 -18.3762 257.546C-22.2879 256.961 -25.955 255.284 -28.9551 252.706C-31.9553 250.129 -34.1667 246.757 -35.3345 242.978C-36.5024 239.199 -36.5794 235.167 -35.5566 231.347ZM42.4637 100.066L70.7267 107.639C69.8273 119.921 75.5917 129.727 80.8972 138.758L81.3166 139.465L18.286 122.576L18.5089 122.447C27.5688 117.033 37.1674 111.286 42.4637 100.066ZM80.4896 95.7615L39.9207 84.8911C38.1275 84.4106 36.5985 83.2375 35.6703 81.6297C34.742 80.0219 34.4905 78.1112 34.971 76.3179C35.4515 74.5247 36.6246 72.9957 38.2324 72.0675C39.8402 71.1392 41.7509 70.8877 43.5442 71.3682L84.1131 82.2386C85.9063 82.7191 87.4353 83.8923 88.3635 85.5001C89.2918 87.1079 89.5433 89.0185 89.0628 90.8118C88.5823 92.6051 87.4091 94.134 85.8013 95.0622C84.1935 95.9905 82.2828 96.242 80.4896 95.7615Z" fill="#8B5E3C"/>
</g>
</svg>
