<svg width="201" height="331" viewBox="0 0 201 331" fill="none" xmlns="http://www.w3.org/2000/svg">
<g opacity="0.5">
<path d="M252.683 175.863C244.504 184.42 234.119 190.551 222.675 193.578C213.076 196.069 203.08 196.647 193.257 195.28C189.029 206.702 188.466 219.157 191.646 230.914L199.696 260.957C199.998 262.074 200.067 263.241 199.899 264.385C199.731 265.529 199.329 266.627 198.719 267.61C198.109 268.592 197.303 269.439 196.352 270.097C195.401 270.755 194.325 271.211 193.19 271.436C191.046 271.815 188.838 271.369 187.009 270.189C185.18 269.008 183.865 267.18 183.328 265.07L179.932 252.397L130.046 223.595C124.782 227.344 118.902 230.143 112.673 231.864C104.085 234.189 95.0223 234.097 86.4836 231.599C60.6709 224.058 40.4034 196.219 32.3894 157.06C31.9716 155.035 32.3119 152.927 33.3458 151.136C34.3796 149.346 36.035 147.997 37.9977 147.346C75.9282 134.748 110.161 138.34 129.556 156.935C137.171 164.22 142.207 173.787 143.901 184.188C144.048 184.99 143.96 185.817 143.647 186.57C143.334 187.322 142.809 187.968 142.137 188.429C141.465 188.889 140.673 189.146 139.858 189.166C139.044 189.187 138.24 188.971 137.546 188.545L112.499 173.309C110.566 172.258 108.298 172.004 106.181 172.6C104.063 173.197 102.262 174.597 101.161 176.503C100.061 178.408 99.749 180.668 100.291 182.801C100.833 184.933 102.187 186.77 104.064 187.918L174.036 229.496C173.884 228.685 173.743 227.872 173.614 227.065C171.347 211.477 174.233 195.575 181.832 181.777L218.777 113.505C219.897 111.568 220.201 109.264 219.623 107.102C219.045 104.94 217.631 103.097 215.694 101.977C213.756 100.857 211.453 100.553 209.291 101.131C207.129 101.709 205.285 103.123 204.165 105.06L168.392 171.228C168.034 171.891 167.505 172.446 166.86 172.835C166.215 173.225 165.477 173.435 164.724 173.443C163.97 173.451 163.229 173.257 162.575 172.881C161.922 172.505 161.382 171.961 161.01 171.306C151.409 154.792 148.789 136.495 153.93 118.805C164.078 83.8965 202.11 56.4759 255.67 45.4438C257.695 45.026 259.803 45.3663 261.594 46.4001C263.384 47.434 264.733 49.0894 265.384 51.052C282.572 102.974 277.841 149.621 252.683 175.863Z" fill="#8B5E3C"/>
</g>
</svg>
