<svg width="92" height="92" viewBox="0 0 92 92" fill="none" xmlns="http://www.w3.org/2000/svg">
<path d="M29.7 16.1002C29.6993 17.4917 30.1194 18.8508 30.905 19.9993C31.6906 21.1478 32.8051 22.0319 34.1022 22.5356C33.5686 24.8678 31.9678 26.5928 29.516 29.1228L29.5114 29.132C29.0238 29.6227 28.5193 30.1455 27.998 30.7006C23.444 34.445 20.5 39.8868 20.5 46.0002C20.5 46.4326 20.5153 46.8619 20.546 47.2882C20.5153 47.6255 20.5 47.9629 20.5 48.3002V71.3002C20.5001 73.3188 21.0315 75.3019 22.0408 77.0501C23.0502 78.7983 24.5019 80.25 26.2501 81.2593C27.9983 82.2686 29.9814 82.7999 32.0001 82.7999C34.0187 82.7999 36.0018 82.2685 37.75 81.2592C39.4982 82.2686 41.4813 82.8001 43.5 82.8002C45.5187 82.8001 47.5018 82.2686 49.25 81.2592C50.9982 82.2685 52.9813 82.7999 54.9999 82.7999C57.0186 82.7999 59.0017 82.2686 60.7499 81.2593C62.4981 80.25 63.9498 78.7983 64.9592 77.0501C65.9685 75.3019 66.4999 73.3188 66.5 71.3002V48.3002C66.5 47.9629 66.4847 47.6255 66.454 47.2882C66.4847 46.8619 66.5 46.4326 66.5 46.0002C66.4978 42.2763 65.4039 38.6347 63.3536 35.526C61.5228 32.7798 59.4298 30.719 57.668 28.9802L57.622 28.9342C55.1104 26.464 53.4728 24.7666 52.9162 22.5264C54.4142 21.9406 55.6605 20.8499 56.4397 19.4428C57.2189 18.0357 57.4821 16.4005 57.1836 14.82C56.8852 13.2394 56.044 11.8128 54.8053 10.7867C53.5667 9.76055 52.0085 9.19939 50.4 9.2002H36.6C34.77 9.2002 33.015 9.92716 31.721 11.2212C30.427 12.5152 29.7 14.2702 29.7 16.1002ZM25.1 71.3002V69.0002H61.9V71.3002C61.8997 72.5998 61.5324 73.8728 60.8404 74.9728C60.1484 76.0729 59.1598 76.9551 57.9884 77.5179C56.8171 78.0808 55.5105 78.3014 54.2193 78.1543C52.9281 78.0073 51.7046 77.4986 50.6898 76.6868C50.2815 76.359 49.7736 76.1804 49.25 76.1804C48.7264 76.1804 48.2185 76.359 47.8102 76.6868C46.587 77.666 45.0669 78.1998 43.5 78.2002C41.867 78.2002 40.372 77.6344 39.1898 76.6868C38.7815 76.359 38.2736 76.1804 37.75 76.1804C37.2264 76.1804 36.7185 76.359 36.3102 76.6868C35.2954 77.4986 34.0719 78.0073 32.7807 78.1543C31.4895 78.3014 30.1829 78.0808 29.0116 77.5179C27.8402 76.9551 26.8516 76.0729 26.1596 74.9728C25.4676 73.8728 25.1003 72.5998 25.1 71.3002ZM38.6976 23.0002H48.3116C49.0706 26.9746 51.734 29.5966 54.1858 32.0116L54.379 32.2002H32.9384L32.9982 32.1404C35.4132 29.6518 37.9708 27.0114 38.6976 23.0002ZM50.4 18.4002H36.6C35.99 18.4002 35.405 18.1579 34.9737 17.7265C34.5423 17.2952 34.3 16.7102 34.3 16.1002C34.3 15.4902 34.5423 14.9052 34.9737 14.4739C35.405 14.0425 35.99 13.8002 36.6 13.8002H50.4C51.01 13.8002 51.595 14.0425 52.0263 14.4739C52.4577 14.9052 52.7 15.4902 52.7 16.1002C52.7 16.7102 52.4577 17.2952 52.0263 17.7265C51.595 18.1579 51.01 18.4002 50.4 18.4002Z" fill="#8B5E3C"/>
</svg>
