<svg width="100" height="100" viewBox="0 0 100 100" fill="none" xmlns="http://www.w3.org/2000/svg">
<path d="M61.3752 9.54194C62.1723 8.85933 63.1976 8.50264 64.2462 8.54315C65.2949 8.58365 66.2896 9.01837 67.0317 9.76043C67.7737 10.5025 68.2085 11.4972 68.249 12.5459C68.2895 13.5945 67.9328 14.6199 67.2502 15.4169L54.1668 28.2919L57.3335 32.2503L65.4168 53.0836C65.8285 54.1821 65.9139 55.3762 65.6625 56.522C65.4112 57.6679 64.8339 58.7167 64.0002 59.5419L51.1252 72.4169C49.9282 73.5389 48.3491 74.1633 46.7085 74.1633C45.0679 74.1633 43.4888 73.5389 42.2918 72.4169L23.1252 53.2503C22.5803 52.7044 22.1517 52.0537 21.8652 51.3376C21.5787 50.6215 21.4404 49.8547 21.4585 49.0836L19.3752 22.2503H23.8335C24.4127 22.2298 24.9897 22.3305 25.5278 22.5457C26.0659 22.7609 26.5532 23.0861 26.9585 23.5003L27.5418 24.2086L31.9168 38.7086M31.9168 91.6669L8.3335 68.1669L17.1668 59.3336L40.7502 82.9169M81.2502 18.7503C81.2502 18.7503 70.8335 30.2503 70.8335 37.5003C70.8335 40.2629 71.931 42.9125 73.8845 44.866C75.838 46.8195 78.4875 47.9169 81.2502 47.9169C84.0128 47.9169 86.6624 46.8195 88.6159 44.866C90.5694 42.9125 91.6668 40.2629 91.6668 37.5003C91.6668 30.2503 81.2502 18.7503 81.2502 18.7503Z" fill="#8B5E3C"/>
</svg>
