<svg width="64" height="64" viewBox="0 0 64 64" fill="none" xmlns="http://www.w3.org/2000/svg">
<path d="M5.60021 6.79963C6.46821 7.95563 8.20021 10.1596 12.5002 11.8956C16.8722 13.6556 24.0402 14.9916 35.8362 14.0076C43.9162 13.3356 49.5602 16.0476 53.1402 20.2316C56.6442 24.3276 58.0002 29.6396 58.0002 33.9996C58.0002 34.917 57.9642 35.8956 57.8922 36.9356C53.5482 33.0076 47.5082 31.0396 41.5602 29.9996C33.4962 28.8476 24.8082 28.2196 19.2002 21.8196C18.6322 21.1716 17.5922 21.4116 17.6842 22.2676C18.1162 26.2076 22.1002 29.5476 25.0602 31.4996C34.5402 37.7636 48.1482 31.0276 55.4602 43.7836C57.4802 46.9836 60.9562 54.5836 62.4602 60.9516C62.7402 62.1436 62.1962 63.3956 61.0442 63.8116C60.837 63.893 60.6208 63.9494 60.4002 63.9796C59.4147 64.0791 58.4273 63.8093 57.6293 63.2226C56.8312 62.6359 56.2793 61.7739 56.0802 60.8036C55.5602 56.9236 54.4962 53.1516 52.6082 49.7236C48.6922 53.5436 42.2602 55.9996 32.0002 55.9996C24.5842 55.9996 18.7202 53.8236 14.2002 50.2596C9.70421 46.7116 6.64421 41.8796 4.64021 36.7276C0.640214 26.4796 0.640214 14.5836 2.04021 7.60763L2.92021 3.22363L5.60021 6.79963Z" fill="#8B5E3C"/>
</svg>
