<svg width="100" height="100" viewBox="0 0 100 100" fill="none" xmlns="http://www.w3.org/2000/svg">
<path d="M31.0002 29.1663C33.7628 29.1663 36.4124 28.0689 38.3659 26.1154C40.3194 24.1619 41.4168 21.5123 41.4168 18.7497C41.4168 15.987 40.3194 13.3375 38.3659 11.384C36.4124 9.43047 33.7628 8.33301 31.0002 8.33301C28.2375 8.33301 25.588 9.43047 23.6345 11.384C21.681 13.3375 20.5835 15.987 20.5835 18.7497C20.5835 21.5123 21.681 24.1619 23.6345 26.1154C25.588 28.0689 28.2375 29.1663 31.0002 29.1663Z" fill="#8B5E3C"/>
<path fill-rule="evenodd" clip-rule="evenodd" d="M11.2833 33.3333C12.0148 32.0666 13.0667 31.0147 14.3335 30.2833C15.6003 29.552 17.0373 29.167 18.5 29.167C19.9627 29.167 21.3997 29.552 22.6665 30.2833C23.9333 31.0147 24.9852 32.0666 25.7167 33.3333H51.8333C52.9384 33.3333 53.9982 33.7723 54.7796 34.5537C55.561 35.3351 56 36.3949 56 37.5C56 38.605 55.561 39.6648 54.7796 40.4462C53.9982 41.2276 52.9384 41.6666 51.8333 41.6666H46.8C47.7412 43.8168 47.9274 46.2222 47.3283 48.4917C46.7291 50.7611 45.3799 52.7612 43.5 54.1666V60.7916L52.775 83.8916C53.2073 84.9651 53.2377 86.1585 52.8604 87.2525C52.4832 88.3465 51.7237 89.2676 50.7217 89.8464C49.7196 90.4252 48.5423 90.6229 47.4061 90.4031C46.27 90.1833 45.2514 89.5608 44.5375 88.65L30.925 71.3083L28.8542 73.95C28.6668 75.4524 28.0736 76.8755 27.1384 78.0662C26.2031 79.2569 24.9611 80.1703 23.5458 80.7083L17.3167 88.65C16.6028 89.5608 15.5842 90.1833 14.448 90.4031C13.3119 90.6229 12.1346 90.4252 11.1325 89.8464C10.1304 89.2676 9.37099 88.3465 8.99375 87.2525C8.61652 86.1585 8.64685 84.9651 9.07917 83.8916L12.5667 75.2C12.0602 73.4224 12.1591 71.5269 12.8477 69.8116C13.5364 68.0964 14.7758 66.6588 16.3708 65.725L18.5 60.4166V45.8333C17.0372 45.8333 15.6002 45.4482 14.3335 44.7168C13.0667 43.9854 12.0147 42.9334 11.2833 41.6666H10.1667C9.0616 41.6666 8.00179 41.2276 7.22039 40.4462C6.43899 39.6648 6 38.605 6 37.5C6 36.3949 6.43899 35.3351 7.22039 34.5537C8.00179 33.7723 9.0616 33.3333 10.1667 33.3333H11.2833ZM18.5 41.6666C19.6051 41.6666 20.6649 41.2276 21.4463 40.4462C22.2277 39.6648 22.6667 38.605 22.6667 37.5C22.6667 36.3949 22.2277 35.3351 21.4463 34.5537C20.6649 33.7723 19.6051 33.3333 18.5 33.3333C17.3949 33.3333 16.3351 33.7723 15.5537 34.5537C14.7723 35.3351 14.3333 36.3949 14.3333 37.5C14.3333 38.605 14.7723 39.6648 15.5537 40.4462C16.3351 41.2276 17.3949 41.6666 18.5 41.6666ZM37.25 52.0833C38.0708 52.0833 38.8835 51.9216 39.6418 51.6075C40.4001 51.2934 41.0891 50.8331 41.6694 50.2527C42.2498 49.6723 42.7102 48.9833 43.0242 48.2251C43.3383 47.4668 43.5 46.6541 43.5 45.8333C43.5 45.0125 43.3383 44.1998 43.0242 43.4415C42.7102 42.6832 42.2498 41.9942 41.6694 41.4139C41.0891 40.8335 40.4001 40.3731 39.6418 40.059C38.8835 39.745 38.0708 39.5833 37.25 39.5833C35.5924 39.5833 34.0027 40.2418 32.8306 41.4139C31.6585 42.586 31 44.1757 31 45.8333C31 47.4909 31.6585 49.0806 32.8306 50.2527C34.0027 51.4248 35.5924 52.0833 37.25 52.0833ZM20.5833 77.0833C21.6884 77.0833 22.7482 76.6443 23.5296 75.8629C24.311 75.0815 24.75 74.0217 24.75 72.9166C24.75 71.8116 24.311 70.7517 23.5296 69.9703C22.7482 69.1889 21.6884 68.75 20.5833 68.75C19.4783 68.75 18.4185 69.1889 17.6371 69.9703C16.8557 70.7517 16.4167 71.8116 16.4167 72.9166C16.4167 74.0217 16.8557 75.0815 17.6371 75.8629C18.4185 76.6443 19.4783 77.0833 20.5833 77.0833Z" fill="#8B5E3C"/>
<path d="M90.6098 23.84L76.6098 10.61C76.1771 10.2031 75.6055 9.97656 75.0115 9.97656C74.4175 9.97656 73.8459 10.2031 73.4132 10.61L59.4132 23.8166C59.1786 24.0342 58.9913 24.2977 58.8628 24.5907C58.7344 24.8837 58.6675 25.2 58.6665 25.52V36.6266C58.6649 37.082 58.7966 37.5279 59.0454 37.9094C59.2942 38.2908 59.6491 38.5911 60.0665 38.7733C60.3598 38.907 60.6776 38.9785 60.9999 38.9833C61.6006 38.9809 62.1773 38.7469 62.6099 38.33L74.6499 26.99C74.7019 26.9378 74.7637 26.8963 74.8318 26.8681C74.8998 26.8398 74.9728 26.8253 75.0465 26.8253C75.1202 26.8253 75.1932 26.8398 75.2613 26.8681C75.3293 26.8963 75.3912 26.9378 75.4432 26.99L87.3898 38.2833C87.7205 38.6032 88.1384 38.8181 88.591 38.9012C89.0435 38.9842 89.5105 38.9316 89.9332 38.75C90.3506 38.5678 90.7055 38.2675 90.9543 37.886C91.2031 37.5046 91.3348 37.0587 91.3332 36.6033V25.52C91.332 25.2057 91.2673 24.8948 91.143 24.6061C91.0187 24.3174 90.8374 24.0568 90.6098 23.84Z" fill="#8B5E3C"/>
<path d="M90.6098 48.8762L76.6098 35.6695C76.1771 35.2627 75.6055 35.0361 75.0115 35.0361C74.4175 35.0361 73.8459 35.2627 73.4132 35.6695L59.4132 48.8762C59.1786 49.0938 58.9912 49.3572 58.8628 49.6503C58.7343 49.9433 58.6675 50.2596 58.6665 50.5795V61.6862C58.6694 62.1376 58.8033 62.5785 59.0518 62.9554C59.3003 63.3323 59.6528 63.629 60.0665 63.8095C60.3598 63.9432 60.6776 64.0147 60.9998 64.0195C61.5944 64.008 62.1653 63.7846 62.6098 63.3895L74.6498 52.0495C74.7577 51.9495 74.8994 51.8939 75.0465 51.8939C75.1936 51.8939 75.3353 51.9495 75.4432 52.0495L87.3898 63.3662C87.7231 63.6822 88.1422 63.8928 88.5946 63.9717C89.047 64.0505 89.5127 63.9941 89.9332 63.8095C90.3505 63.6274 90.7055 63.3271 90.9543 62.9456C91.203 62.5642 91.3348 62.1183 91.3332 61.6629V50.5795C91.3351 50.2613 91.272 49.946 91.1476 49.6531C91.0232 49.3602 90.8402 49.0958 90.6098 48.8762Z" fill="#8B5E3C"/>
</svg>
