<svg width="72" height="72" viewBox="0 0 72 72" fill="none" xmlns="http://www.w3.org/2000/svg">
<path d="M64.8281 49.0781L60.0468 46.3162C60.912 45.4251 61.9043 44.6668 62.9915 44.0662C63.7023 43.6655 64.2259 43.0003 64.4485 42.2153C64.6711 41.4303 64.5746 40.5892 64.1799 39.875C63.7853 39.1609 63.1245 38.6315 62.3415 38.4022C61.5584 38.1729 60.7165 38.2623 59.999 38.6508C57.9232 39.7997 56.0837 41.3314 54.5779 43.1648L42.1874 36L54.5751 28.8478C56.0806 30.6815 57.9202 32.2133 59.9962 33.3619C60.352 33.5625 60.7441 33.6907 61.1497 33.739C61.5554 33.7873 61.9665 33.7548 62.3596 33.6433C62.7526 33.5319 63.1196 33.3437 63.4395 33.0897C63.7594 32.8357 64.0258 32.5208 64.2234 32.1632C64.421 31.8057 64.5458 31.4126 64.5906 31.0065C64.6355 30.6005 64.5995 30.1896 64.4847 29.7976C64.3699 29.4055 64.1786 29.0401 63.9218 28.7224C63.6651 28.4046 63.3479 28.1409 62.9887 27.9464C61.9017 27.3455 60.9094 26.5873 60.044 25.6964L64.8253 22.9345C65.191 22.739 65.5137 22.4719 65.7741 22.1492C66.0346 21.8265 66.2275 21.4547 66.3414 21.0559C66.4553 20.6572 66.4878 20.2396 66.4371 19.828C66.3864 19.4164 66.2535 19.0192 66.0462 18.66C65.8389 18.3008 65.5615 17.9869 65.2305 17.737C64.8996 17.4872 64.5217 17.3064 64.1195 17.2055C63.7172 17.1046 63.2988 17.0856 62.889 17.1496C62.4793 17.2136 62.0866 17.3593 61.7343 17.5781L56.9531 20.3386C56.6124 19.1432 56.4504 17.904 56.4721 16.6613C56.4811 16.2543 56.4096 15.8495 56.2618 15.4702C56.1141 15.0908 55.8929 14.7444 55.611 14.4507C55.329 14.157 54.9919 13.9219 54.6189 13.7587C54.246 13.5956 53.8445 13.5077 53.4374 13.5H53.3798C52.5692 13.4999 51.7909 13.8179 51.2123 14.3857C50.6337 14.9534 50.3011 15.7256 50.286 16.5361C50.2424 18.9069 50.648 21.2645 51.4813 23.4844L39.0937 30.6408V16.3378C41.4343 15.951 43.6803 15.124 45.7129 13.9008C46.4158 13.4773 46.9216 12.7919 47.1191 11.9955C47.3166 11.199 47.1897 10.3568 46.7662 9.65391C46.3427 8.95106 45.6573 8.44524 44.8609 8.24771C44.0645 8.05018 43.2222 8.17713 42.5193 8.60063C41.4538 9.24092 40.2994 9.72001 39.0937 10.0223V5.34375C39.0937 4.52324 38.7677 3.73633 38.1875 3.15614C37.6074 2.57595 36.8205 2.25 35.9999 2.25C35.1794 2.25 34.3925 2.57595 33.8123 3.15614C33.2321 3.73633 32.9062 4.52324 32.9062 5.34375V10.0223C31.7004 9.72001 30.5461 9.24092 29.4806 8.60063C28.7777 8.17713 27.9354 8.05018 27.139 8.24771C26.3425 8.44524 25.6572 8.95106 25.2337 9.65391C24.8102 10.3568 24.6832 11.199 24.8808 11.9955C25.0783 12.7919 25.5841 13.4773 26.287 13.9008C28.3196 15.124 30.5656 15.951 32.9062 16.3378V30.6408L20.5185 23.4844C21.3532 21.2638 21.7597 18.9052 21.7167 16.5333C21.7016 15.7228 21.3689 14.9506 20.7904 14.3828C20.2118 13.8151 19.4335 13.497 18.6229 13.4972H18.5624C18.1561 13.5047 17.7553 13.5922 17.3828 13.7546C17.0103 13.9171 16.6735 14.1513 16.3916 14.4439C16.1096 14.7366 15.8881 15.0819 15.7396 15.4602C15.5912 15.8385 15.5187 16.2423 15.5263 16.6486C15.5491 17.8932 15.3875 19.1343 15.0468 20.3316L10.2656 17.5781C9.91348 17.3681 9.52315 17.2301 9.11729 17.1723C8.71142 17.1144 8.2981 17.1378 7.90134 17.2411C7.50459 17.3444 7.13232 17.5255 6.80617 17.7739C6.48002 18.0223 6.20649 18.333 6.00149 18.688C5.79648 19.0431 5.66408 19.4353 5.61199 19.842C5.5599 20.2486 5.58915 20.6616 5.69804 21.0568C5.80693 21.4521 5.9933 21.8217 6.2463 22.1443C6.49931 22.4669 6.81391 22.736 7.17182 22.9359L11.9531 25.6978C11.0876 26.5887 10.0954 27.3469 9.00838 27.9478C8.64916 28.1423 8.33201 28.406 8.07525 28.7238C7.81849 29.0415 7.62719 29.4069 7.51239 29.799C7.3976 30.191 7.36158 30.6019 7.40642 31.0079C7.45126 31.414 7.57607 31.8071 7.77364 32.1646C7.97122 32.5222 8.23765 32.8371 8.55755 33.0911C8.87746 33.3451 9.2445 33.5333 9.63751 33.6447C10.0305 33.7562 10.4417 33.7887 10.8473 33.7404C11.253 33.6921 11.645 33.5639 12.0009 33.3633C14.0767 32.2144 15.9162 30.6827 17.422 28.8492L29.8124 36L17.4248 43.1522C15.919 41.3187 14.0795 39.787 12.0037 38.6381C11.6478 38.4375 11.2558 38.3093 10.8502 38.261C10.4445 38.2127 10.0333 38.2452 9.64033 38.3567C9.24732 38.4681 8.88027 38.6563 8.56036 38.9103C8.24046 39.1643 7.97403 39.4792 7.77646 39.8368C7.57888 40.1943 7.45407 40.5874 7.40923 40.9935C7.36439 41.3995 7.40041 41.8104 7.5152 42.2024C7.63 42.5945 7.8213 42.9599 8.07806 43.2776C8.33482 43.5954 8.65197 43.8591 9.01119 44.0536C10.0982 44.6545 11.0904 45.4127 11.9559 46.3036L7.17182 49.0781C6.81391 49.2781 6.49931 49.5472 6.2463 49.8698C5.9933 50.1923 5.80693 50.562 5.69804 50.9573C5.58915 51.3525 5.5599 51.7654 5.61199 52.1721C5.66408 52.5787 5.79648 52.971 6.00149 53.326C6.20649 53.6811 6.48002 53.9918 6.80617 54.2402C7.13232 54.4886 7.50459 54.6697 7.90134 54.773C8.2981 54.8762 8.71142 54.8996 9.11729 54.8418C9.52315 54.7839 9.91348 54.646 10.2656 54.4359L15.0468 51.6755C15.3874 52.8709 15.5495 54.11 15.5278 55.3528C15.5134 56.1724 15.825 56.9642 16.394 57.5542C16.963 58.1443 17.7429 58.4845 18.5624 58.5H18.6201C19.4307 58.5001 20.209 58.1821 20.7876 57.6143C21.3661 57.0466 21.6987 56.2744 21.7138 55.4639C21.7575 53.0931 21.3519 50.7355 20.5185 48.5156L32.9062 41.3592V55.6622C30.5656 56.049 28.3196 56.8759 26.287 58.0992C25.5841 58.5227 25.0783 59.2081 24.8808 60.0045C24.6832 60.801 24.8102 61.6432 25.2337 62.3461C25.6572 63.0489 26.3425 63.5548 27.139 63.7523C27.9354 63.9498 28.7777 63.8229 29.4806 63.3994C30.5461 62.7591 31.7004 62.28 32.9062 61.9777V66.6562C32.9062 67.4768 33.2321 68.2637 33.8123 68.8439C34.3925 69.424 35.1794 69.75 35.9999 69.75C36.8205 69.75 37.6074 69.424 38.1875 68.8439C38.7677 68.2637 39.0937 67.4768 39.0937 66.6562V61.9777C40.2994 62.28 41.4538 62.7591 42.5193 63.3994C43.2222 63.8229 44.0645 63.9498 44.8609 63.7523C45.6573 63.5548 46.3427 63.0489 46.7662 62.3461C47.1897 61.6432 47.3166 60.801 47.1191 60.0045C46.9216 59.2081 46.4158 58.5227 45.7129 58.0992C43.6803 56.8759 41.4343 56.049 39.0937 55.6622V41.3592L51.4813 48.5156C50.6467 50.7362 50.2402 53.0948 50.2832 55.4667C50.2983 56.2772 50.6309 57.0494 51.2095 57.6172C51.7881 58.1849 52.5664 58.503 53.377 58.5028H53.4374C53.8437 58.4953 54.2446 58.4078 54.6171 58.2454C54.9896 58.0829 55.3264 57.8487 55.6083 57.5561C55.8903 57.2634 56.1118 56.9181 56.2602 56.5398C56.4087 56.1615 56.4812 55.7577 56.4735 55.3514C56.4508 54.1068 56.6124 52.8657 56.9531 51.6684L61.7343 54.4289C62.0864 54.655 62.4807 54.8073 62.8933 54.8766C63.3059 54.9459 63.7283 54.9308 64.1349 54.8322C64.5415 54.7337 64.924 54.5536 65.259 54.303C65.594 54.0524 65.8748 53.7364 66.0842 53.3742C66.2936 53.012 66.4274 52.611 66.4774 52.1956C66.5275 51.7802 66.4927 51.359 66.3753 50.9574C66.2579 50.5558 66.0602 50.1822 65.7943 49.8592C65.5283 49.5362 65.1996 49.2705 64.8281 49.0781Z" fill="#8B5E3C"/>
</svg>
