<svg width="100" height="100" viewBox="0 0 100 100" fill="none" xmlns="http://www.w3.org/2000/svg">
<path d="M48.5703 15.3906C50.9401 15.1005 53.3979 15.0635 55.5332 15.4688V15.4697C57.4899 15.8457 60.1296 16.7905 61.3877 19.3066C64.3132 25.158 61.9285 30.7586 59.2422 34.3418C57.4857 36.6837 55.2499 38.8506 52.6865 40.166L52.6846 40.167C52.145 40.4468 51.1326 40.917 50 40.917C47.7552 40.9169 45.4946 39.8881 43.5791 38.5332L42.7227 37.9277L42.4268 38.9346C42.0473 40.2249 41.68 41.6421 41.3633 43.1445C40.7348 46.0389 40.3936 48.9888 40.3457 51.9502L40.3291 52.998L41.3262 52.6758C45.5565 51.3099 49.82 51.472 53.4688 53.5322L53.9062 53.7793L54.3008 53.4688C57.1262 51.25 60.3759 49.6329 63.8496 48.7168L63.8486 48.7158C68.9458 47.3788 74.9877 47.5254 80.5293 50.9795L81.0635 51.3242C85.0932 54.0122 88.19 59.1178 88.8135 64.7285C89.4609 70.5395 87.4532 76.9091 81.2979 81.835C77.2623 85.0617 71.1678 86.474 65.25 87.0518L64.0693 87.1562C58.0143 87.6438 51.6267 87.363 46.4727 86.8379L45.458 86.7295C35.6459 85.6402 28.1301 82.9027 22.8975 80.0938C21.1477 79.153 19.1333 78.0617 17.3691 76.7236C15.6012 75.3827 14.1561 73.8468 13.4717 72.0508H13.4727C12.5238 69.5488 12.7604 66.4625 13.0137 63.626C13.3424 60.0064 14.1495 55.4746 15.6631 50.5586V50.5576C18.6835 40.7414 24.5888 29.1551 35.3242 20.2822C38.5115 17.6467 43.9469 15.9578 48.5703 15.3906ZM54.6895 22.2734C53.1744 21.8308 51.4779 21.9378 50.0459 22.0967L49.4053 22.1719C47.3604 22.4224 45.3695 22.9107 43.6807 23.5059C42.007 24.0957 40.5716 24.8111 39.6777 25.5459L39.6768 25.5469C30.2513 33.3394 24.9432 43.6259 22.1924 52.5674C21.0055 56.3637 20.2108 60.2721 19.8203 64.2305L19.8193 64.2373C19.6784 65.8247 19.5389 67.5821 19.7959 69.2793L19.8291 69.4971L19.9756 69.6631C21.4583 71.3431 23.458 72.5992 25.3369 73.6396L26.1328 74.0732C30.5964 76.4728 37.2679 78.9436 46.209 79.9375V79.9365C50.9334 80.4632 56.832 80.7781 62.4082 80.4268L63.5186 80.3477C66.5792 80.1012 69.3035 79.6556 71.5801 79.0195C73.7057 78.4256 75.4816 77.6539 76.7783 76.6924L77.0312 76.498C81.1633 73.1932 82.3462 69.2955 82.0537 65.8145L82.0205 65.4795C81.6022 61.7106 79.4896 58.4881 77.2744 57.0098V57.0088L76.9268 56.7852C73.319 54.5346 69.3094 54.348 65.5811 55.3242H65.5801C61.6439 56.3601 58.3832 58.6061 56.7988 60.5127H56.7979C56.4945 60.8787 56.1178 61.1774 55.6924 61.3896C55.2669 61.6019 54.8012 61.7239 54.3262 61.7461C53.8513 61.7682 53.3769 61.6902 52.9336 61.5186C52.4903 61.3469 52.0872 61.0852 51.751 60.749C50.4727 59.4707 48.7404 58.6462 46.6221 58.626C44.5173 58.606 42.0924 59.3792 39.3965 61.1758C38.9294 61.4877 38.3919 61.6803 37.833 61.7354C37.2742 61.7903 36.7102 61.706 36.1914 61.4912C35.6727 61.2763 35.2147 60.9368 34.8584 60.5029C34.5021 60.0689 34.2583 59.5536 34.1484 59.0029C32.9844 53.1661 33.5867 46.9278 34.6758 41.7422C35.7043 36.874 37.2167 32.6588 38.3838 30.1934L38.6123 29.7236C38.8964 29.1569 39.3326 28.6797 39.8721 28.3467C40.4115 28.0137 41.0331 27.8379 41.667 27.8379C42.3009 27.8379 42.9225 28.0137 43.4619 28.3467C44.0014 28.6797 44.4376 29.1569 44.7217 29.7236V29.7246C45.6411 31.5542 47.3253 33.2128 49.335 33.9199L49.6768 34.04L49.9834 33.8467C51.476 32.9065 52.7519 31.6059 53.7744 30.2412L53.7754 30.2422C55.6581 27.7348 56.4236 25.1742 55.4805 22.8135L55.3545 22.499L55.0361 22.3857L54.6895 22.2734Z" fill="#8B5E3C" stroke="#FDF2D0" stroke-width="1.5"/>
</svg>
