<svg width="80" height="80" viewBox="0 0 80 80" fill="none" xmlns="http://www.w3.org/2000/svg">
<path d="M67.5 20.625H54.375V20C54.375 16.1875 52.8605 12.5312 50.1647 9.83534C47.4688 7.1395 43.8125 5.625 40 5.625C36.1875 5.625 32.5312 7.1395 29.8353 9.83534C27.1395 12.5312 25.625 16.1875 25.625 20V20.625H12.5C11.3397 20.625 10.2269 21.0859 9.40641 21.9064C8.58594 22.7269 8.125 23.8397 8.125 25V62.5C8.125 63.6603 8.58594 64.7731 9.40641 65.5936C10.2269 66.4141 11.3397 66.875 12.5 66.875H67.5C68.6603 66.875 69.7731 66.4141 70.5936 65.5936C71.4141 64.7731 71.875 63.6603 71.875 62.5V25C71.875 23.8397 71.4141 22.7269 70.5936 21.9064C69.7731 21.0859 68.6603 20.625 67.5 20.625ZM29.375 20C29.375 17.1821 30.4944 14.4796 32.487 12.487C34.4796 10.4944 37.1821 9.375 40 9.375C42.8179 9.375 45.5204 10.4944 47.513 12.487C49.5056 14.4796 50.625 17.1821 50.625 20V20.625H29.375V20ZM68.125 62.5C68.125 62.6658 68.0592 62.8247 67.9419 62.9419C67.8247 63.0592 67.6658 63.125 67.5 63.125H12.5C12.3342 63.125 12.1753 63.0592 12.0581 62.9419C11.9408 62.8247 11.875 62.6658 11.875 62.5V25C11.875 24.8342 11.9408 24.6753 12.0581 24.5581C12.1753 24.4408 12.3342 24.375 12.5 24.375H67.5C67.6658 24.375 67.8247 24.4408 67.9419 24.5581C68.0592 24.6753 68.125 24.8342 68.125 25V62.5Z" fill="#8B5E3C"/>
</svg>
