<svg width="100" height="100" viewBox="0 0 100 100" fill="none" xmlns="http://www.w3.org/2000/svg">
<path d="M17.5779 11.5624C19.8435 12.5781 94.9216 45.9374 94.9216 45.9374C97.031 46.8749 97.1873 48.3593 96.4841 55.6249C95.7029 63.8281 94.9998 85.1562 65.0779 89.1406C45.8591 91.6406 21.406 85.7812 9.68726 67.8906C-4.68774 45.9374 8.59351 18.2812 11.5623 13.8281C13.4373 11.0937 15.3123 10.5468 17.5779 11.5624Z" fill="#8B5E3C"/>
<path d="M94.9218 45.9375C94.6874 45.7812 23.0468 14.0625 17.6562 11.6406C7.49992 24.6094 -2.96883 59.375 21.7968 75.1562C48.0468 91.9531 83.2812 67.1875 94.9218 45.9375Z" fill="#FDF2D0"/>
<path d="M91.9533 44.5312C91.7189 44.375 24.2189 14.5312 19.1408 12.2656C9.60953 24.375 0.468904 58.4375 23.5939 73.2031C48.1252 88.9844 81.0939 64.4531 91.9533 44.5312Z" fill="#FDF2D0"/>
<path d="M43.9061 29.3751L15.2343 37.6564C13.2811 38.2814 11.7968 39.8439 11.328 41.797C9.84363 48.4376 11.953 60.0001 18.2811 65.0783C21.0155 67.1876 24.9999 66.4845 26.7186 63.4376L45.703 32.0314C46.7186 30.7033 46.0936 28.7501 43.9061 29.3751ZM55.078 31.6408C55.078 31.6408 66.4843 55.1564 67.578 57.422C68.6718 59.6876 72.4999 61.0939 75.3124 59.6095C83.6718 55.2345 87.4218 49.922 90.3124 43.8283C83.3593 40.7814 57.1874 29.1408 57.1874 29.1408C55.3124 28.2814 54.0624 29.6095 55.078 31.6408ZM48.3593 33.1251C47.1093 35.2345 30.8593 63.2814 29.3749 65.7033C27.8905 68.2033 28.828 71.5626 31.4843 72.8908C41.0936 77.9689 55.6249 73.2033 62.4218 67.422C64.1405 65.9376 65.9374 63.4376 64.9218 61.0158C63.9061 58.5939 53.828 34.8439 52.9686 33.047C52.0311 30.9376 49.7655 30.8595 48.3593 33.1251Z" fill="#8B5E3C"/>
<path d="M40.7814 32.9691C39.6877 33.2816 32.8908 35.3128 32.1095 35.6253C31.0158 36.0159 30.3908 36.9534 30.6252 37.5784C30.8595 38.2816 31.9533 38.4378 33.047 38.0472C33.672 37.8128 38.5939 35.0003 40.4689 33.9847C38.047 35.8597 32.5002 41.3285 31.797 42.0316C30.7033 43.2035 30.4689 44.6878 31.172 45.3909C31.9533 46.0941 33.4377 45.7816 34.5314 44.6097C35.4689 43.5941 41.172 34.6097 41.6408 33.7503C42.1095 32.891 41.9533 32.6566 40.7814 32.9691ZM48.672 45.7816C48.672 44.0628 49.7658 37.7347 50.0783 36.1722C50.3908 34.9222 51.2502 34.7659 51.4845 36.5628C51.7189 38.3597 52.8127 44.1409 52.8127 45.7816C52.8127 47.4222 51.8752 48.3597 50.7033 48.3597C49.6095 48.3597 48.672 47.5003 48.672 45.7816ZM62.422 38.2816C61.4845 36.8753 59.8439 34.4535 59.2189 33.516C58.672 32.5785 59.297 31.8753 60.6252 32.8128C61.9533 33.7503 63.7502 35.0784 64.8439 35.9378C66.0939 36.9535 66.3283 38.2816 65.4689 39.0628C64.6095 39.8441 63.3595 39.6878 62.422 38.2816Z" fill="#FDF2D0"/>
<path d="M69.0193 82.1622C70.3252 81.4939 71.0175 80.236 70.5654 79.3526C70.1134 78.4691 68.6882 78.2947 67.3822 78.9629C66.0763 79.6311 65.384 80.889 65.8361 81.7725C66.2881 82.6559 67.7133 82.8304 69.0193 82.1622Z" fill="#8B5E3C"/>
<path d="M78.1741 82.6542C79.4363 81.9065 80.0494 80.6082 79.5437 79.7544C79.0379 78.9005 77.6047 78.8145 76.3425 79.5622C75.0803 80.3099 74.4672 81.6082 74.9729 82.462C75.4787 83.3158 76.912 83.4018 78.1741 82.6542Z" fill="#8B5E3C"/>
<path d="M80.7896 74.7117C81.9588 73.8256 82.4206 72.4661 81.8211 71.6752C81.2217 70.8843 79.788 70.9615 78.6189 71.8477C77.4497 72.7338 76.9879 74.0933 77.5873 74.8842C78.1868 75.6751 79.6205 75.5978 80.7896 74.7117Z" fill="#8B5E3C"/>
<path d="M45 23.6719C38.5156 20.7812 25.9375 15.3125 21.875 13.5156C19.0625 15.2344 14.2968 22.4219 13.125 30.0781C12.6562 32.8906 14.4531 34.6875 17.2656 33.9063C17.2656 33.9063 43.5937 26.6406 44.8437 26.3281C46.0937 25.9375 46.4062 24.2969 45 23.6719Z" fill="#8B5E3C"/>
</svg>
